# xmcd
#
# Track frame offsets:
#	150
#	17507
#	33595
#	48505
#	64150
#	81630
#	101705
#	125960
#	143727
#	162637
#	188382
#
# Disc length: 2762 seconds
#
# Revision: 0
# Processed by: cddbd v1.5PL3 Copyright (c) Steve Scherf et al.
# Submitted via: dBpowerAMP V4.0
#
DISCID=9d0ac80b
DTITLE=The Alley Gators - Feeth and Teeth
DYEAR=2003
DGENRE=Blues
TTITLE0=Never Say Die
TTITLE1=Not Invited
TTITLE2=Don't Know Why
TTITLE3=Where Were You
TTITLE4=Money Down
TTITLE5=Two Time Boogie
TTITLE6=Took Your Lover
TTITLE7=Walk The Streets For Money
TTITLE8=Treat Me Right
TTITLE9=Strong Man
TTITLE10=The Lonely One
EXTD=Feeth&Teeth
EXTT0=
EXTT1=
EXTT2=
EXTT3=
EXTT4=
EXTT5=
EXTT6=
EXTT7=
EXTT8=
EXTT9=
EXTT10=
PLAYORDER=
